<?xml version="1.0" encoding="UTF-8" standalone="no"?>
<!DOCTYPE svg PUBLIC "-//W3C//DTD SVG 1.1//EN"
 "http://www.w3.org/Graphics/SVG/1.1/DTD/svg11.dtd">
<!-- Generated by graphviz version 14.1.1 (0)
 -->
<!-- Title: finite_state_machine Pages: 1 -->
<svg width="152pt" height="132pt"
 viewBox="0.00 0.00 152.00 132.00" xmlns="http://www.w3.org/2000/svg" xmlns:xlink="http://www.w3.org/1999/xlink">
<g id="graph0" class="graph" transform="scale(1 1) rotate(0) translate(4 127.5)">
<title>finite_state_machine</title>
<polygon fill="white" stroke="none" points="-4,4 -4,-127.5 147.56,-127.5 147.56,4 -4,4"/>
<!-- r_1 -->
<g id="node1" class="node">
<title>r_1</title>
<ellipse fill="none" stroke="black" cx="27.2" cy="-61.8" rx="23.2" ry="23.2"/>
<ellipse fill="none" stroke="black" cx="27.2" cy="-61.8" rx="27.2" ry="27.2"/>
<text xml:space="preserve" text-anchor="middle" x="27.2" y="-56.75" font-family="Times,serif" font-size="14.00">r_1</text>
</g>
<!-- r_1&#45;&gt;r_1 -->
<g id="edge4" class="edge">
<title>r_1&#45;&gt;r_1</title>
<path fill="none" stroke="black" d="M18.15,-87.81C17.64,-98.25 20.66,-107 27.2,-107 31.09,-107 33.73,-103.91 35.13,-99.22"/>
<polygon fill="black" stroke="black" points="38.61,-99.61 36.11,-89.32 31.64,-98.93 38.61,-99.61"/>
<text xml:space="preserve" text-anchor="middle" x="27.2" y="-110.2" font-family="Times,serif" font-size="14.00">0</text>
</g>
<!-- r_0 -->
<g id="node3" class="node">
<title>r_0</title>
<ellipse fill="none" stroke="black" cx="120.36" cy="-34.8" rx="23.2" ry="23.2"/>
<text xml:space="preserve" text-anchor="middle" x="120.36" y="-29.75" font-family="Times,serif" font-size="14.00">r_0</text>
</g>
<!-- r_1&#45;&gt;r_0 -->
<g id="edge5" class="edge">
<title>r_1&#45;&gt;r_0</title>
<path fill="none" stroke="black" d="M54.68,-58.39C62.64,-57.03 71.34,-55.2 79.15,-52.8 82.31,-51.83 85.54,-50.68 88.73,-49.43"/>
<polygon fill="black" stroke="black" points="90.05,-52.68 97.89,-45.55 87.31,-46.23 90.05,-52.68"/>
<text xml:space="preserve" text-anchor="middle" x="75.78" y="-57.53" font-family="Times,serif" font-size="14.00">1</text>
</g>
<!-- start -->
<g id="node2" class="node">
<title>start</title>
<ellipse fill="black" stroke="black" cx="27.2" cy="-1.8" rx="1.8" ry="1.8"/>
</g>
<!-- start&#45;&gt;r_0 -->
<g id="edge1" class="edge">
<title>start&#45;&gt;r_0</title>
<path fill="none" stroke="black" d="M29.23,-2.17C35,-4.26 64.09,-14.79 87.68,-23.33"/>
<polygon fill="black" stroke="black" points="86.34,-26.57 96.93,-26.68 88.72,-19.99 86.34,-26.57"/>
</g>
<!-- r_0&#45;&gt;r_1 -->
<g id="edge3" class="edge">
<title>r_0&#45;&gt;r_1</title>
<path fill="none" stroke="black" d="M97.04,-33.3C89.13,-33.35 80.25,-34.07 72.4,-36.3 68.12,-37.52 63.81,-39.25 59.65,-41.23"/>
<polygon fill="black" stroke="black" points="58.22,-38.03 51.06,-45.85 61.53,-44.2 58.22,-38.03"/>
<text xml:space="preserve" text-anchor="middle" x="75.78" y="-39.5" font-family="Times,serif" font-size="14.00">0</text>
</g>
<!-- r_0&#45;&gt;r_0 -->
<g id="edge2" class="edge">
<title>r_0&#45;&gt;r_0</title>
<path fill="none" stroke="black" d="M112.16,-56.84C111.27,-67.07 114,-76 120.36,-76 124.13,-76 126.63,-72.85 127.84,-68.15"/>
<polygon fill="black" stroke="black" points="131.33,-68.55 128.45,-58.35 124.34,-68.12 131.33,-68.55"/>
<text xml:space="preserve" text-anchor="middle" x="120.36" y="-79.2" font-family="Times,serif" font-size="14.00">1</text>
</g>
</g>
</svg>
