<?xml version="1.0" encoding="UTF-8" standalone="no"?>
<!DOCTYPE svg PUBLIC "-//W3C//DTD SVG 1.1//EN"
 "http://www.w3.org/Graphics/SVG/1.1/DTD/svg11.dtd">
<!-- Generated by graphviz version 14.1.1 (0)
 -->
<!-- Title: finite_state_machine Pages: 1 -->
<svg width="158pt" height="134pt"
 viewBox="0.00 0.00 158.00 134.00" xmlns="http://www.w3.org/2000/svg" xmlns:xlink="http://www.w3.org/1999/xlink">
<g id="graph0" class="graph" transform="scale(1 1) rotate(0) translate(4 130.04)">
<title>finite_state_machine</title>
<!-- q_1 -->
<g id="node1" class="node">
<title>q_1</title>
<ellipse fill="none" stroke="var(--muted-fg)" cx="28.74" cy="-62.8" rx="24.74" ry="24.74"/>
<ellipse fill="none" stroke="var(--muted-fg)" cx="28.74" cy="-62.8" rx="28.74" ry="28.74"/>
<text xml:space="preserve" text-anchor="middle" x="28.74" y="-57.75" font-family="Times,serif" font-size="14.00">q_1</text>
</g>
<!-- q_1&#45;&gt;q_1 -->
<g id="edge4" class="edge">
<title>q_1&#45;&gt;q_1</title>
<path fill="none" stroke="var(--muted-fg)" d="M19.38,-90.16C18.96,-100.74 22.08,-109.54 28.74,-109.54 32.79,-109.54 35.54,-106.27 36.97,-101.33"/>
<polygon fill="var(--muted-fg)" stroke="var(--muted-fg)" points="40.42,-101.97 37.94,-91.67 33.45,-101.27 40.42,-101.97"/>
<text xml:space="preserve" text-anchor="middle" x="28.74" y="-112.74" font-family="Times,serif" font-size="14.00">0</text>
</g>
<!-- q_0 -->
<g id="node3" class="node">
<title>q_0</title>
<ellipse fill="none" stroke="var(--muted-fg)" cx="124.96" cy="-34.8" rx="24.74" ry="24.74"/>
<text xml:space="preserve" text-anchor="middle" x="124.96" y="-29.75" font-family="Times,serif" font-size="14.00">q_0</text>
</g>
<!-- q_1&#45;&gt;q_0 -->
<g id="edge5" class="edge">
<title>q_1&#45;&gt;q_0</title>
<path fill="none" stroke="var(--muted-fg)" d="M57.53,-58.68C65.58,-57.17 74.33,-55.22 82.22,-52.8 85.34,-51.85 88.53,-50.73 91.7,-49.53"/>
<polygon fill="var(--muted-fg)" stroke="var(--muted-fg)" points="92.87,-52.84 100.81,-45.82 90.22,-46.35 92.87,-52.84"/>
<text xml:space="preserve" text-anchor="middle" x="78.85" y="-57.6" font-family="Times,serif" font-size="14.00">1</text>
</g>
<!-- start -->
<g id="node2" class="node">
<title>start</title>
<ellipse fill="var(--muted-fg)" stroke="var(--muted-fg)" cx="28.74" cy="-1.8" rx="1.8" ry="1.8"/>
</g>
<!-- start&#45;&gt;q_0 -->
<g id="edge1" class="edge">
<title>start&#45;&gt;q_0</title>
<path fill="none" stroke="var(--muted-fg)" d="M30.8,-2.17C36.72,-4.25 66.4,-14.64 90.69,-23.15"/>
<polygon fill="var(--muted-fg)" stroke="var(--muted-fg)" points="89.34,-26.38 99.93,-26.38 91.65,-19.78 89.34,-26.38"/>
</g>
<!-- q_0&#45;&gt;q_1 -->
<g id="edge3" class="edge">
<title>q_0&#45;&gt;q_1</title>
<path fill="none" stroke="var(--muted-fg)" d="M99.93,-33.22C92.01,-33.32 83.25,-34.08 75.47,-36.3 71.23,-37.51 66.96,-39.21 62.83,-41.16"/>
<polygon fill="var(--muted-fg)" stroke="var(--muted-fg)" points="61.47,-37.91 54.28,-45.7 64.75,-44.1 61.47,-37.91"/>
<text xml:space="preserve" text-anchor="middle" x="78.85" y="-39.5" font-family="Times,serif" font-size="14.00">0</text>
</g>
<!-- q_0&#45;&gt;q_0 -->
<g id="edge2" class="edge">
<title>q_0&#45;&gt;q_0</title>
<path fill="none" stroke="var(--muted-fg)" d="M116.42,-58.53C115.72,-68.77 118.57,-77.54 124.96,-77.54 128.76,-77.54 131.31,-74.45 132.6,-69.79"/>
<polygon fill="var(--muted-fg)" stroke="var(--muted-fg)" points="136.07,-70.29 133.38,-60.04 129.09,-69.73 136.07,-70.29"/>
<text xml:space="preserve" text-anchor="middle" x="124.96" y="-80.74" font-family="Times,serif" font-size="14.00">1</text>
</g>
</g>
</svg>
