<?xml version="1.0" encoding="UTF-8" standalone="no"?>
<!DOCTYPE svg PUBLIC "-//W3C//DTD SVG 1.1//EN"
 "http://www.w3.org/Graphics/SVG/1.1/DTD/svg11.dtd">
<!-- Generated by graphviz version 14.1.1 (0)
 -->
<!-- Title: finite_state_machine Pages: 1 -->
<svg width="283pt" height="124pt"
 viewBox="0.00 0.00 283.00 124.00" xmlns="http://www.w3.org/2000/svg" xmlns:xlink="http://www.w3.org/1999/xlink">
<g id="graph0" class="graph" transform="scale(1 1) rotate(0) translate(4 119.63)">
<title>finite_state_machine</title>
<polygon fill="white" stroke="none" points="-4,4 -4,-119.63 278.52,-119.63 278.52,4 -4,4"/>
<!-- start -->
<g id="node1" class="node">
<title>start</title>
<ellipse fill="black" stroke="black" cx="1.8" cy="-24.74" rx="1.8" ry="1.8"/>
</g>
<!-- q_0 -->
<g id="node2" class="node">
<title>q_0</title>
<ellipse fill="none" stroke="black" cx="65.34" cy="-24.74" rx="24.74" ry="24.74"/>
<text xml:space="preserve" text-anchor="middle" x="65.34" y="-19.69" font-family="Times,serif" font-size="14.00">q_0</text>
</g>
<!-- start&#45;&gt;q_0 -->
<g id="edge1" class="edge">
<title>start&#45;&gt;q_0</title>
<path fill="none" stroke="black" d="M3.87,-24.74C7.15,-24.74 17.54,-24.74 28.8,-24.74"/>
<polygon fill="black" stroke="black" points="28.61,-28.24 38.61,-24.74 28.61,-21.24 28.61,-28.24"/>
</g>
<!-- q_1 -->
<g id="node3" class="node">
<title>q_1</title>
<ellipse fill="none" stroke="black" cx="249.79" cy="-24.74" rx="24.74" ry="24.74"/>
<text xml:space="preserve" text-anchor="middle" x="249.79" y="-19.69" font-family="Times,serif" font-size="14.00">q_1</text>
</g>
<!-- q_0&#45;&gt;q_1 -->
<g id="edge2" class="edge">
<title>q_0&#45;&gt;q_1</title>
<path fill="none" stroke="black" d="M79.59,-45.44C91.35,-61.73 110.15,-83.2 132.82,-92.74 153.09,-101.27 162.03,-101.27 182.3,-92.74 201.08,-84.84 217.2,-68.75 228.86,-54.21"/>
<polygon fill="black" stroke="black" points="231.35,-56.73 234.62,-46.65 225.78,-52.49 231.35,-56.73"/>
<text xml:space="preserve" text-anchor="middle" x="157.56" y="-102.33" font-family="Times,serif" font-size="14.00">0</text>
</g>
<!-- q_2 -->
<g id="node4" class="node">
<title>q_2</title>
<ellipse fill="none" stroke="black" cx="157.56" cy="-24.74" rx="24.74" ry="24.74"/>
<text xml:space="preserve" text-anchor="middle" x="157.56" y="-19.69" font-family="Times,serif" font-size="14.00">q_2</text>
</g>
<!-- q_0&#45;&gt;q_2 -->
<g id="edge7" class="edge">
<title>q_0&#45;&gt;q_2</title>
<path fill="none" stroke="black" d="M90.52,-24.74C100,-24.74 111.06,-24.74 121.4,-24.74"/>
<polygon fill="black" stroke="black" points="121.12,-28.24 131.12,-24.74 121.12,-21.24 121.12,-28.24"/>
<text xml:space="preserve" text-anchor="middle" x="111.45" y="-27.94" font-family="Times,serif" font-size="14.00">1</text>
</g>
<!-- q_1&#45;&gt;q_1 -->
<g id="edge3" class="edge">
<title>q_1&#45;&gt;q_1</title>
<path fill="none" stroke="black" d="M241.24,-48.47C240.54,-58.71 243.39,-67.47 249.79,-67.47 253.58,-67.47 256.13,-64.38 257.43,-59.73"/>
<polygon fill="black" stroke="black" points="260.9,-60.23 258.21,-49.98 253.92,-59.67 260.9,-60.23"/>
<text xml:space="preserve" text-anchor="middle" x="249.79" y="-70.67" font-family="Times,serif" font-size="14.00">0</text>
</g>
<!-- q_1&#45;&gt;q_2 -->
<g id="edge4" class="edge">
<title>q_1&#45;&gt;q_2</title>
<path fill="none" stroke="black" d="M228.45,-11.32C219.94,-7.2 209.82,-4.22 200.3,-6.24 196.92,-6.95 193.48,-7.96 190.1,-9.14"/>
<polygon fill="black" stroke="black" points="189.02,-5.8 181.05,-12.79 191.64,-12.3 189.02,-5.8"/>
<text xml:space="preserve" text-anchor="middle" x="203.67" y="-9.44" font-family="Times,serif" font-size="14.00">1</text>
</g>
<!-- q_2&#45;&gt;q_1 -->
<g id="edge5" class="edge">
<title>q_2&#45;&gt;q_1</title>
<path fill="none" stroke="black" d="M182.74,-24.74C192.22,-24.74 203.29,-24.74 213.62,-24.74"/>
<polygon fill="black" stroke="black" points="213.34,-28.24 223.34,-24.74 213.34,-21.24 213.34,-28.24"/>
<text xml:space="preserve" text-anchor="middle" x="203.67" y="-27.94" font-family="Times,serif" font-size="14.00">1</text>
</g>
<!-- q_2&#45;&gt;q_2 -->
<g id="edge6" class="edge">
<title>q_2&#45;&gt;q_2</title>
<path fill="none" stroke="black" d="M149.02,-48.47C148.32,-58.71 151.17,-67.47 157.56,-67.47 161.36,-67.47 163.91,-64.38 165.2,-59.73"/>
<polygon fill="black" stroke="black" points="168.67,-60.23 165.98,-49.98 161.69,-59.67 168.67,-60.23"/>
<text xml:space="preserve" text-anchor="middle" x="157.56" y="-70.67" font-family="Times,serif" font-size="14.00">0</text>
</g>
</g>
</svg>
